<?xml version="1.0" encoding="UTF-8" standalone="no"?>
<svg
   xmlns:dc="http://purl.org/dc/elements/1.1/"
   xmlns:cc="http://creativecommons.org/ns#"
   xmlns:rdf="http://www.w3.org/1999/02/22-rdf-syntax-ns#"
   xmlns:svg="http://www.w3.org/2000/svg"
   xmlns="http://www.w3.org/2000/svg"
   xmlns:sodipodi="http://sodipodi.sourceforge.net/DTD/sodipodi-0.dtd"
   xmlns:inkscape="http://www.inkscape.org/namespaces/inkscape"
   width="2500mm"
   height="1250mm"
   viewBox="0 0 9448.8194 4724.4094"
   version="1.1"
   id="svg950"
   sodipodi:docname="back.svg"
   inkscape:version="0.92.3 (2405546, 2018-03-11)">
  <metadata
     id="metadata956">
    <rdf:RDF>
      <cc:Work
         rdf:about="">
        <dc:format>image/svg+xml</dc:format>
        <dc:type
           rdf:resource="http://purl.org/dc/dcmitype/StillImage" />
        <dc:title>Produce by Acme CAD Converter</dc:title>
      </cc:Work>
    </rdf:RDF>
  </metadata>
  <defs
     id="defs954" />
  <sodipodi:namedview
     pagecolor="#ffffff"
     bordercolor="#666666"
     borderopacity="1"
     objecttolerance="10"
     gridtolerance="10"
     guidetolerance="10"
     inkscape:pageopacity="0"
     inkscape:pageshadow="2"
     inkscape:window-width="1598"
     inkscape:window-height="865"
     id="namedview952"
     showgrid="false"
     inkscape:zoom="0.3173198"
     inkscape:cx="3456.6535"
     inkscape:cy="955.17147"
     inkscape:window-x="0"
     inkscape:window-y="16"
     inkscape:window-maximized="0"
     inkscape:current-layer="layer1"
     inkscape:document-units="mm"
     units="mm"
     inkscape:snap-global="true"
     inkscape:snap-bbox="true"
     inkscape:snap-bbox-edge-midpoints="true"
     inkscape:measure-start="5835.01,809.138"
     inkscape:measure-end="5838.3,809.138"
     showguides="true"
     inkscape:guide-bbox="true"
     inkscape:snap-grids="false"
     inkscape:bbox-paths="true"
     inkscape:bbox-nodes="true"
     inkscape:object-paths="true"
     inkscape:snap-intersection-paths="false"
     inkscape:snap-bbox-midpoints="true"
     inkscape:snap-center="true"
     inkscape:snap-smooth-nodes="true">
    <inkscape:grid
       type="xygrid"
       id="grid2311"
       units="mm"
       spacingx="37.795275"
       spacingy="37.795275"
       empspacing="10"
       color="#3f3fff"
       opacity="0.1254902"
       empcolor="#3f3fff"
       empopacity="0.50196078" />
  </sodipodi:namedview>
  <title
     id="title2">Produce by Acme CAD Converter</title>
  <desc
     id="desc4">Produce by Acme CAD Converter</desc>
  <g
     inkscape:groupmode="layer"
     id="layer5"
     inkscape:label="Construction"
     style="display:none">
    <rect
       style="display:inline;opacity:1;fill:none;fill-opacity:1;stroke:#0400ff;stroke-width:3.77952719;stroke-miterlimit:4;stroke-dasharray:none;stroke-opacity:1"
       id="rect6076"
       width="6765.354"
       height="1776.3779"
       x="2645.6692"
       y="2948.0317" />
    <rect
       transform="translate(0,-944.8819)"
       y="3325.9846"
       x="-3.5527137e-15"
       height="2343.3069"
       width="2645.6692"
       id="rect6079"
       style="display:inline;opacity:1;fill:none;fill-opacity:1;stroke:#0000ff;stroke-width:3.77952743;stroke-miterlimit:4;stroke-dasharray:none;stroke-opacity:1" />
    <rect
       transform="translate(0,-944.8819)"
       style="display:inline;opacity:1;fill:none;fill-opacity:1;stroke:#0000ff;stroke-width:3.77952743;stroke-miterlimit:4;stroke-dasharray:none;stroke-opacity:1"
       id="rect6081"
       width="2645.6692"
       height="2343.3069"
       x="-3.5527137e-15"
       y="982.67773" />
    <rect
       transform="translate(0,-944.8819)"
       y="1776.3781"
       x="2645.6692"
       height="2116.5354"
       width="6765.354"
       id="rect6083"
       style="display:inline;opacity:1;fill:none;fill-opacity:1;stroke:#0000ff;stroke-width:3.77952719;stroke-miterlimit:4;stroke-dasharray:none;stroke-opacity:1" />
    <rect
       style="display:inline;opacity:1;fill:none;fill-opacity:1;stroke:#0000ff;stroke-width:3.77952719;stroke-miterlimit:4;stroke-dasharray:none;stroke-opacity:1"
       id="rect6085"
       width="6765.354"
       height="491.33859"
       x="2645.6692"
       y="340.15762" />
  </g>
  <g
     inkscape:groupmode="layer"
     id="layer6"
     inkscape:label="Parts"
     style="display:inline"
     transform="translate(0,-944.88188)">
    <path
       style="opacity:1;fill:none;fill-opacity:1;stroke:#ff0000;stroke-width:3.77952719;stroke-miterlimit:4;stroke-dasharray:none;stroke-opacity:1"
       d="m 2917.779,2948.0312 c -8.3754,5e-4 -15.1172,6.7438 -15.1172,15.1192 v 782.3633 c 0,8.3754 -6.7418,15.1172 -15.1172,15.1172 h -226.7594 c -1.047,0 -2.0668,0.1039 -3.0528,0.3046 -6.9006,1.4059 -12.0625,7.4847 -12.0625,14.8125 v 442.2051 c 0,8.3755 6.7417,15.1172 15.1172,15.1172 h 158.7263 c 8.3755,0 15.1172,-6.7417 15.1172,-15.1172 v -102.0469 c 0,-8.3754 6.7436,-15.1171 15.1191,-15.1171 h 37.7949 c 8.3754,0 15.1172,6.7417 15.1172,15.1171 v 234.3321 c 0,8.3754 -6.7418,15.1172 -15.1172,15.1172 h -226.7594 c -1.047,0 -2.0668,0.104 -3.0528,0.3047 -6.9006,1.4059 -12.0625,7.4847 -12.0625,14.8125 v 328.8203 c 0,8.3755 6.7417,15.1172 15.1172,15.1172 h 158.7263 c 8.3755,0 15.1172,-6.7417 15.1172,-15.1172 v -102.0469 c 0,-8.3754 6.7436,-15.1172 15.1191,-15.1172 h 37.7949 c 8.3754,0 15.1172,6.7418 15.1172,15.1172 v 102.0449 c 0,1.5704 0.2373,3.082 0.6777,4.5039 0.5873,1.8959 1.5352,3.6289 2.7657,5.1211 0.3079,0.3734 0.6326,0.7323 0.9746,1.0742 2.0494,2.0494 4.6867,3.5092 7.6445,4.1114 0.9853,0.2005 2.0064,0.3066 3.0527,0.3066 h 6221.1346 c 4.7103,-6e-4 8.9054,-2.1356 11.6738,-5.4922 2.1529,-2.6109 3.4428,-5.9615 3.4433,-9.625 v -102.0449 c 0,-8.3754 6.7418,-15.1172 15.1172,-15.1172 h 37.795 c 8.3755,0 15.1191,6.7418 15.1191,15.1172 v 102.0469 c 0,8.3755 6.7417,15.1172 15.1172,15.1172 h 158.7251 c 8.3756,0 15.1172,-6.7417 15.1172,-15.1172 v -328.8203 c 0,-7.3278 -5.1619,-13.4066 -12.0625,-14.8125 -0.986,-0.2007 -2.0057,-0.3047 -3.0527,-0.3047 h -226.7525 c -8.3754,0 -15.1191,-6.7418 -15.1191,-15.1172 v -234.3321 c 0,-8.3754 6.7417,-15.1171 15.1171,-15.1171 h 37.795 c 8.3755,0 15.1191,6.7417 15.1191,15.1171 v 102.0469 c 0,8.3755 6.7417,15.1172 15.1172,15.1172 h 158.7251 c 8.376,0 15.1172,-6.7417 15.1172,-15.1172 V 3775.748 c 0,-7.3278 -5.1619,-13.4066 -12.0625,-14.8125 -0.986,-0.2007 -2.0057,-0.3046 -3.0527,-0.3046 h -226.7564 c -8.3754,0 -15.1191,-6.7418 -15.1191,-15.1172 v -782.3612 c 0,-8.3754 -6.7418,-15.1188 -15.1172,-15.1192 z"
       id="rect6040"
       inkscape:connector-curvature="0"
       transform="translate(0,944.88188)"
       sodipodi:nodetypes="ccccccsssssssscccccssssssssssccccscccssssssssscccccssssssssccccccc" />
    <rect
       style="opacity:1;fill:none;fill-opacity:1;stroke:#ff0000;stroke-width:3.77952766;stroke-miterlimit:4;stroke-dasharray:none;stroke-opacity:1"
       id="rect6350"
       width="472.44092"
       height="120.94488"
       x="3091.6384"
       y="4006.2993"
       rx="60.472439"
       ry="60.472439" />
    <rect
       ry="60.472439"
       rx="60.472439"
       y="4006.2993"
       x="8492.6172"
       height="120.94488"
       width="472.44092"
       id="rect6364"
       style="opacity:1;fill:none;fill-opacity:1;stroke:#ff0000;stroke-width:3.77952766;stroke-miterlimit:4;stroke-dasharray:none;stroke-opacity:1" />
    <rect
       style="opacity:1;fill:none;fill-opacity:1;stroke:#ff0000;stroke-width:3.77952766;stroke-miterlimit:4;stroke-dasharray:none;stroke-opacity:1"
       id="rect6368"
       width="472.44092"
       height="120.94488"
       x="5792.126"
       y="4006.2993"
       rx="60.472439"
       ry="60.472439" />
  </g>
  <g
     inkscape:groupmode="layer"
     id="layer1"
     inkscape:label="Template"
     style="display:inline"
     transform="translate(0,-944.88188)">
    <path
       style="opacity:1;fill:none;fill-opacity:1;stroke:#00ff00;stroke-width:3.77952743;stroke-miterlimit:4;stroke-dasharray:none;stroke-opacity:1"
       d="m 3052.627,2910.2363 c -35.3648,35.0758 -83.1476,54.7712 -132.9571,54.8028 v 812.6035 h -256.9922 c -0.056,49.7776 -19.7493,97.523 -54.8027,132.8652 0,57.5339 0,115.0677 0,172.6016 35.0748,35.3638 54.77,83.145 54.8027,132.9531 h 154.9453 v -132.2793 h 102.0469 v 298.582 h -257.3711 c -0.061,49.6261 -19.6393,97.2368 -54.5078,132.5489 0.023,19.7962 0.046,39.5924 0.07,59.3886 35.1695,35.3751 54.9259,83.2207 54.961,133.1035 h 154.801 V 4575.125 h 102.0469 v 132.2812 c 49.7783,0.055 97.5245,19.7489 132.8672,54.8028 h 1000.991 V 2910.2363 Z"
       transform="translate(0,944.88188)"
       id="rect872"
       inkscape:connector-curvature="0"
       sodipodi:nodetypes="ccccccccccccccccccccccc" />
    <path
       style="opacity:1;fill:none;fill-opacity:1;stroke:#00ff00;stroke-width:3.77952743;stroke-miterlimit:4;stroke-dasharray:none;stroke-opacity:1"
       d="m 5272.4408,2910.2363 v 472.4414 h 1511.811 v -472.4414 h -729.7206 c -8.7267,15.1189 -17.4562,30.2361 -26.1855,45.3535 -8.7281,-15.1181 -17.4568,-30.2358 -26.1855,-45.3535 z"
       transform="translate(0,944.88188)"
       id="rect876"
       inkscape:connector-curvature="0"
       sodipodi:nodetypes="cccccccc" />
    <rect
       style="display:inline;opacity:1;fill:none;fill-opacity:1;stroke:#00ff00;stroke-width:3.77952747;stroke-miterlimit:4;stroke-dasharray:none;stroke-opacity:1"
       id="rect878"
       width="506.45667"
       height="154.96062"
       x="3074.6306"
       y="3989.2915"
       ry="77.480309"
       rx="77.480309" />
    <rect
       rx="77.480309"
       ry="77.480309"
       y="3989.2922"
       x="5774.0273"
       height="154.96062"
       width="506.45667"
       id="rect881"
       style="display:inline;opacity:1;fill:none;fill-opacity:1;stroke:#00ff00;stroke-width:3.77952747;stroke-miterlimit:4;stroke-dasharray:none;stroke-opacity:1" />
    <rect
       style="opacity:1;fill:none;fill-opacity:1;stroke:#00ff00;stroke-width:3.77952743;stroke-miterlimit:4;stroke-dasharray:none;stroke-opacity:1"
       id="rect832"
       width="37.795273"
       height="56.692913"
       x="2759.9023"
       y="4494.8877" />
    <rect
       style="opacity:1;fill:none;fill-opacity:1;stroke:#00ff00;stroke-width:3.77952743;stroke-miterlimit:4;stroke-dasharray:none;stroke-opacity:1"
       id="rect838"
       width="37.795273"
       height="170.07874"
       x="2835.4929"
       y="4494.8877" />
    <path
       inkscape:connector-curvature="0"
       id="path846"
       d="m 2835.4933,4154.7299 c 0,100.7874 0,201.5748 0,302.3622 h 37.7949 v -302.3622 z"
       style="display:inline;opacity:1;fill:none;fill-opacity:1;stroke:#00ff00;stroke-width:3.77952743;stroke-miterlimit:4;stroke-dasharray:none;stroke-opacity:1"
       sodipodi:nodetypes="ccccc" />
    <path
       sodipodi:nodetypes="ccccc"
       style="display:inline;opacity:1;fill:none;fill-opacity:1;stroke:#00ff00;stroke-width:3.77952743;stroke-miterlimit:4;stroke-dasharray:none;stroke-opacity:1"
       d="m 2759.9027,4154.7299 c 0,100.7874 0,201.5748 0,302.3622 h 37.7949 v -302.3622 z"
       id="path848"
       inkscape:connector-curvature="0" />
    <path
       inkscape:connector-curvature="0"
       id="path845"
       d="m 6179.5275,4074.3307 c -100.7874,0 -201.5748,0 -302.3622,0 v 37.7949 h 302.3622 z"
       style="display:inline;opacity:1;fill:none;fill-opacity:1;stroke:#00ff00;stroke-width:3.77952743;stroke-miterlimit:4;stroke-dasharray:none;stroke-opacity:1"
       sodipodi:nodetypes="ccccc" />
    <path
       sodipodi:nodetypes="ccccc"
       style="display:inline;opacity:1;fill:none;fill-opacity:1;stroke:#00ff00;stroke-width:3.77952743;stroke-miterlimit:4;stroke-dasharray:none;stroke-opacity:1"
       d="m 6179.5275,4021.4171 c -100.7874,0 -201.5748,0 -302.3622,0 v 37.7949 h 302.3622 z"
       id="path849"
       inkscape:connector-curvature="0" />
    <path
       sodipodi:nodetypes="ccccc"
       style="display:inline;opacity:1;fill:none;fill-opacity:1;stroke:#00ff00;stroke-width:3.77952743;stroke-miterlimit:4;stroke-dasharray:none;stroke-opacity:1"
       d="m 3477.1637,4074.3307 c -100.7874,0 -201.5748,0 -302.3622,0 v 37.7949 h 302.3622 z"
       id="path851"
       inkscape:connector-curvature="0" />
    <path
       inkscape:connector-curvature="0"
       id="path853"
       d="m 3477.1637,4021.4171 c -100.7874,0 -201.5748,0 -302.3622,0 v 37.7949 h 302.3622 z"
       style="display:inline;opacity:1;fill:none;fill-opacity:1;stroke:#00ff00;stroke-width:3.77952743;stroke-miterlimit:4;stroke-dasharray:none;stroke-opacity:1"
       sodipodi:nodetypes="ccccc" />
  </g>
</svg>
