<?xml version="1.0" encoding="UTF-8" standalone="no"?>
<svg
   xmlns:dc="http://purl.org/dc/elements/1.1/"
   xmlns:cc="http://creativecommons.org/ns#"
   xmlns:rdf="http://www.w3.org/1999/02/22-rdf-syntax-ns#"
   xmlns:svg="http://www.w3.org/2000/svg"
   xmlns="http://www.w3.org/2000/svg"
   xmlns:sodipodi="http://sodipodi.sourceforge.net/DTD/sodipodi-0.dtd"
   xmlns:inkscape="http://www.inkscape.org/namespaces/inkscape"
   width="2500mm"
   height="1250mm"
   viewBox="0 0 9448.8194 4724.4094"
   version="1.1"
   id="svg950"
   sodipodi:docname="back_jw.svg"
   inkscape:version="0.92.3 (unknown)">
  <metadata
     id="metadata956">
    <rdf:RDF>
      <cc:Work
         rdf:about="">
        <dc:format>image/svg+xml</dc:format>
        <dc:type
           rdf:resource="http://purl.org/dc/dcmitype/StillImage" />
        <dc:title>Produce by Acme CAD Converter</dc:title>
      </cc:Work>
    </rdf:RDF>
  </metadata>
  <defs
     id="defs954" />
  <sodipodi:namedview
     pagecolor="#ffffff"
     bordercolor="#666666"
     borderopacity="1"
     objecttolerance="10"
     gridtolerance="10"
     guidetolerance="10"
     inkscape:pageopacity="0"
     inkscape:pageshadow="2"
     inkscape:window-width="1920"
     inkscape:window-height="1050"
     id="namedview952"
     showgrid="false"
     inkscape:zoom="0.13887423"
     inkscape:cx="4009.2706"
     inkscape:cy="1572.0678"
     inkscape:window-x="0"
     inkscape:window-y="0"
     inkscape:window-maximized="1"
     inkscape:current-layer="layer1"
     inkscape:document-units="mm"
     units="mm"
     inkscape:snap-global="true"
     inkscape:snap-bbox="true"
     inkscape:snap-bbox-edge-midpoints="true"
     inkscape:measure-start="5835.01,809.138"
     inkscape:measure-end="5838.3,809.138"
     showguides="true"
     inkscape:guide-bbox="true"
     inkscape:snap-grids="false"
     inkscape:bbox-paths="true"
     inkscape:bbox-nodes="true"
     inkscape:object-paths="true"
     inkscape:snap-intersection-paths="false"
     inkscape:snap-bbox-midpoints="true"
     inkscape:snap-center="true"
     inkscape:snap-smooth-nodes="true">
    <inkscape:grid
       type="xygrid"
       id="grid2311"
       units="mm"
       spacingx="37.795275"
       spacingy="37.795275"
       empspacing="10"
       color="#3f3fff"
       opacity="0.1254902"
       empcolor="#3f3fff"
       empopacity="0.50196078" />
  </sodipodi:namedview>
  <title
     id="title2">Produce by Acme CAD Converter</title>
  <desc
     id="desc4">Produce by Acme CAD Converter</desc>
  <g
     inkscape:groupmode="layer"
     id="layer5"
     inkscape:label="Construction"
     style="display:none">
    <rect
       style="display:inline;opacity:1;fill:none;fill-opacity:1;stroke:#0400ff;stroke-width:3.77952719;stroke-miterlimit:4;stroke-dasharray:none;stroke-opacity:1"
       id="rect6076"
       width="6765.354"
       height="1776.3779"
       x="2645.6692"
       y="2948.0317" />
    <rect
       transform="translate(0,-944.8819)"
       y="3325.9846"
       x="-3.5527137e-15"
       height="2343.3069"
       width="2645.6692"
       id="rect6079"
       style="display:inline;opacity:1;fill:none;fill-opacity:1;stroke:#0000ff;stroke-width:3.77952743;stroke-miterlimit:4;stroke-dasharray:none;stroke-opacity:1" />
    <rect
       transform="translate(0,-944.8819)"
       style="display:inline;opacity:1;fill:none;fill-opacity:1;stroke:#0000ff;stroke-width:3.77952743;stroke-miterlimit:4;stroke-dasharray:none;stroke-opacity:1"
       id="rect6081"
       width="2645.6692"
       height="2343.3069"
       x="-3.5527137e-15"
       y="982.67773" />
    <rect
       transform="translate(0,-944.8819)"
       y="1776.3781"
       x="2645.6692"
       height="2116.5354"
       width="6765.354"
       id="rect6083"
       style="display:inline;opacity:1;fill:none;fill-opacity:1;stroke:#0000ff;stroke-width:3.77952719;stroke-miterlimit:4;stroke-dasharray:none;stroke-opacity:1" />
    <rect
       style="display:inline;opacity:1;fill:none;fill-opacity:1;stroke:#0000ff;stroke-width:3.77952719;stroke-miterlimit:4;stroke-dasharray:none;stroke-opacity:1"
       id="rect6085"
       width="6765.354"
       height="491.33859"
       x="2645.6692"
       y="340.15762" />
  </g>
  <g
     inkscape:groupmode="layer"
     id="layer6"
     inkscape:label="Parts"
     style="display:inline"
     transform="translate(0,-944.88188)">
    <path
       style="opacity:1;fill:none;fill-opacity:1;stroke:#ff0000;stroke-width:3.77952719;stroke-miterlimit:4;stroke-dasharray:none;stroke-opacity:1"
       d="m 2917.779,2948.0312 c -8.3754,5e-4 -15.1172,6.7438 -15.1172,15.1192 v 782.3633 c 0,8.3754 -6.7418,15.1172 -15.1172,15.1172 h -226.7594 c -1.047,0 -2.0668,0.1039 -3.0528,0.3046 -6.9006,1.4059 -12.0625,7.4847 -12.0625,14.8125 v 442.2051 c 0,8.3755 6.7417,15.1172 15.1172,15.1172 h 158.7263 c 8.3755,0 15.1172,-6.7417 15.1172,-15.1172 v -102.0469 c 0,-8.3754 6.7436,-15.1171 15.1191,-15.1171 h 37.7949 c 8.3754,0 15.1172,6.7417 15.1172,15.1171 v 234.3321 c 0,8.3754 -6.7418,15.1172 -15.1172,15.1172 h -226.7594 c -1.047,0 -2.0668,0.104 -3.0528,0.3047 -6.9006,1.4059 -12.0625,7.4847 -12.0625,14.8125 v 328.8203 c 0,8.3755 6.7417,15.1172 15.1172,15.1172 h 158.7263 c 8.3755,0 15.1172,-6.7417 15.1172,-15.1172 v -102.0469 c 0,-8.3754 6.7436,-15.1172 15.1191,-15.1172 h 37.7949 c 8.3754,0 15.1172,6.7418 15.1172,15.1172 v 102.0449 c 0,1.5704 0.2373,3.082 0.6777,4.5039 0.5873,1.8959 1.5352,3.6289 2.7657,5.1211 0.3079,0.3734 0.6326,0.7323 0.9746,1.0742 2.0494,2.0494 4.6867,3.5092 7.6445,4.1114 0.9853,0.2005 2.0064,0.3066 3.0527,0.3066 h 6221.1346 c 4.7103,-6e-4 8.9054,-2.1356 11.6738,-5.4922 2.1529,-2.6109 3.4428,-5.9615 3.4433,-9.625 v -102.0449 c 0,-8.3754 6.7418,-15.1172 15.1172,-15.1172 h 37.795 c 8.3755,0 15.1191,6.7418 15.1191,15.1172 v 102.0469 c 0,8.3755 6.7417,15.1172 15.1172,15.1172 h 158.7251 c 8.3756,0 15.1172,-6.7417 15.1172,-15.1172 v -328.8203 c 0,-7.3278 -5.1619,-13.4066 -12.0625,-14.8125 -0.986,-0.2007 -2.0057,-0.3047 -3.0527,-0.3047 h -226.7525 c -8.3754,0 -15.1191,-6.7418 -15.1191,-15.1172 v -234.3321 c 0,-8.3754 6.7417,-15.1171 15.1171,-15.1171 h 37.795 c 8.3755,0 15.1191,6.7417 15.1191,15.1171 v 102.0469 c 0,8.3755 6.7417,15.1172 15.1172,15.1172 h 158.7251 c 8.376,0 15.1172,-6.7417 15.1172,-15.1172 V 3775.748 c 0,-7.3278 -5.1619,-13.4066 -12.0625,-14.8125 -0.986,-0.2007 -2.0057,-0.3046 -3.0527,-0.3046 h -226.7564 c -8.3754,0 -15.1191,-6.7418 -15.1191,-15.1172 v -782.3612 c 0,-8.3754 -6.7418,-15.1188 -15.1172,-15.1192 z"
       id="rect6040"
       inkscape:connector-curvature="0"
       transform="translate(0,944.88188)"
       sodipodi:nodetypes="ccccccsssssssscccccssssssssssccccscccssssssssscccccssssssssccccccc" />
    <rect
       style="opacity:1;fill:none;fill-opacity:1;stroke:#ff0000;stroke-width:3.77952766;stroke-miterlimit:4;stroke-dasharray:none;stroke-opacity:1"
       id="rect6350"
       width="472.44092"
       height="120.94488"
       x="3091.6384"
       y="4006.2993"
       rx="60.472439"
       ry="60.472439" />
    <rect
       ry="60.472439"
       rx="60.472439"
       y="4006.2993"
       x="8492.6172"
       height="120.94488"
       width="472.44092"
       id="rect6364"
       style="opacity:1;fill:none;fill-opacity:1;stroke:#ff0000;stroke-width:3.77952766;stroke-miterlimit:4;stroke-dasharray:none;stroke-opacity:1" />
    <rect
       style="opacity:1;fill:none;fill-opacity:1;stroke:#ff0000;stroke-width:3.77952766;stroke-miterlimit:4;stroke-dasharray:none;stroke-opacity:1"
       id="rect6368"
       width="472.44092"
       height="120.94488"
       x="5792.126"
       y="4006.2993"
       rx="60.472439"
       ry="60.472439" />
  </g>
  <g
     inkscape:groupmode="layer"
     id="layer1"
     inkscape:label="Template"
     style="display:inline"
     transform="translate(0,-944.88188)">
    <path
       style="opacity:1;fill:none;fill-opacity:1;fill-rule:evenodd;stroke:#00ff00;stroke-width:1.88976371;stroke-linecap:round;stroke-miterlimit:4;stroke-dasharray:none;stroke-dashoffset:0;stroke-opacity:1"
       d="m 5322.666,3892.9145 v 347.7168 h 1411.3613 v -347.7168 z m 878.4766,96.3789 c 4.9243,0.026 9.8445,0.4748 14.6894,1.3594 34.0005,5.569 61.871,35.8805 64.42,70.2539 3.1628,38.0931 -26.3905,77.5034 -65.0625,81.707 -117.6922,2.8079 -235.4507,0.4972 -353.17,1.1426 -35.6913,4.3246 -71.9514,-20.0731 -82.1406,-54.3926 -14.5195,-41.3902 15.8849,-90.8604 58.791,-98.1523 33.6362,-1.4171 67.3879,-1.1761 101.0742,-1.4864 86.4257,-0.4533 172.8778,1.1148 259.2871,-0.4179 0.7034,-0.014 1.4079,-0.017 2.1114,-0.014 z"
       id="rect754"
       inkscape:connector-curvature="0"
       sodipodi:nodetypes="cccccccccccccccc" />
    <path
       style="opacity:1;fill:none;fill-opacity:1;stroke:#00ff00;stroke-width:1.88976371;stroke-miterlimit:4;stroke-dasharray:none;stroke-opacity:1"
       d="m 3366.3933,4329.281 h 671.7134 V 3892.9131 H 2979.0703 c -16.8394,10.463 -36.1279,16.328 -55.9414,17.0098 v 0.1367 h -3.459 v 812.4649 H 2817.623 2662.6777 v 306.1406 132.2793 h 154.9453 v -132.2793 h 102.0469 v 298.582 H 2817.623 2662.6777 v 192.7559 132.2812 H 2817.623 V 5520.003 h 102.0469 v 403.1953 h 446.7234 z m 134.3157,-339.9889 c 4.9244,0.026 9.8464,0.4748 14.6914,1.3593 34.0005,5.569 61.8709,35.8805 64.4199,70.2539 3.1628,38.0931 -26.3905,77.5035 -65.0625,81.7071 -117.6922,2.8079 -235.4506,0.4971 -353.1699,1.1425 -35.6913,4.3246 -71.9514,-20.073 -82.1406,-54.3925 -14.5195,-41.3902 15.8829,-90.8585 58.789,-98.1504 33.6362,-1.417 67.3899,-1.178 101.0762,-1.4883 86.4257,-0.4533 172.8778,1.1167 259.2871,-0.416 0.7034,-0.014 1.4059,-0.019 2.1094,-0.016 z"
       id="rect872"
       inkscape:connector-curvature="0"
       sodipodi:nodetypes="ccccccccccccccccccccccccccccccccccccc" />
  </g>
</svg>
