<?xml version="1.0" encoding="UTF-8" standalone="no"?>
<svg
   xmlns:dc="http://purl.org/dc/elements/1.1/"
   xmlns:cc="http://creativecommons.org/ns#"
   xmlns:rdf="http://www.w3.org/1999/02/22-rdf-syntax-ns#"
   xmlns:svg="http://www.w3.org/2000/svg"
   xmlns="http://www.w3.org/2000/svg"
   xmlns:sodipodi="http://sodipodi.sourceforge.net/DTD/sodipodi-0.dtd"
   xmlns:inkscape="http://www.inkscape.org/namespaces/inkscape"
   width="2500mm"
   height="1250mm"
   viewBox="0 0 9448.8194 4724.4094"
   version="1.1"
   id="svg950"
   sodipodi:docname="brace.svg"
   inkscape:version="0.92.3 (2405546, 2018-03-11)">
  <metadata
     id="metadata956">
    <rdf:RDF>
      <cc:Work
         rdf:about="">
        <dc:format>image/svg+xml</dc:format>
        <dc:type
           rdf:resource="http://purl.org/dc/dcmitype/StillImage" />
        <dc:title>Produce by Acme CAD Converter</dc:title>
      </cc:Work>
    </rdf:RDF>
  </metadata>
  <defs
     id="defs954" />
  <sodipodi:namedview
     pagecolor="#ffffff"
     bordercolor="#666666"
     borderopacity="1"
     objecttolerance="10"
     gridtolerance="10"
     guidetolerance="10"
     inkscape:pageopacity="0"
     inkscape:pageshadow="2"
     inkscape:window-width="1598"
     inkscape:window-height="865"
     id="namedview952"
     showgrid="false"
     inkscape:zoom="0.094629626"
     inkscape:cx="3994.8875"
     inkscape:cy="2007.5785"
     inkscape:window-x="0"
     inkscape:window-y="16"
     inkscape:window-maximized="0"
     inkscape:current-layer="layer6"
     inkscape:document-units="mm"
     units="mm"
     inkscape:snap-global="true"
     inkscape:snap-bbox="true"
     inkscape:snap-bbox-edge-midpoints="true"
     inkscape:measure-start="364.854,4461.48"
     inkscape:measure-end="476.312,4491.35"
     showguides="true"
     inkscape:guide-bbox="true"
     inkscape:snap-grids="true"
     inkscape:bbox-paths="true"
     inkscape:bbox-nodes="true"
     inkscape:object-paths="true"
     inkscape:snap-intersection-paths="true"
     inkscape:snap-bbox-midpoints="true">
    <inkscape:grid
       type="xygrid"
       id="grid2311"
       units="mm"
       spacingx="37.795275"
       spacingy="37.795275"
       empspacing="10"
       color="#3f3fff"
       opacity="0.1254902"
       empcolor="#3f3fff"
       empopacity="0.50196078" />
  </sodipodi:namedview>
  <title
     id="title2">Produce by Acme CAD Converter</title>
  <desc
     id="desc4">Produce by Acme CAD Converter</desc>
  <g
     inkscape:groupmode="layer"
     id="layer4"
     inkscape:label="FLN"
     transform="translate(0,-944.88188)"
     style="display:inline">
    <g
       inkscape:groupmode="layer"
       id="layer5"
       inkscape:label="Construction"
       transform="translate(0,944.88188)"
       style="display:inline">
      <rect
         style="display:inline;opacity:1;fill:none;fill-opacity:1;stroke:#0400ff;stroke-width:3.77952719;stroke-miterlimit:4;stroke-dasharray:none;stroke-opacity:1"
         id="rect6076"
         width="6765.354"
         height="1776.3779"
         x="2645.6692"
         y="2948.0317" />
      <rect
         transform="translate(0,-944.8819)"
         y="3325.9846"
         x="-3.5527137e-15"
         height="2343.3069"
         width="2645.6692"
         id="rect6079"
         style="display:inline;opacity:1;fill:none;fill-opacity:1;stroke:#0000ff;stroke-width:3.77952743;stroke-miterlimit:4;stroke-dasharray:none;stroke-opacity:1" />
      <rect
         transform="translate(0,-944.8819)"
         style="display:inline;opacity:1;fill:none;fill-opacity:1;stroke:#0000ff;stroke-width:3.77952743;stroke-miterlimit:4;stroke-dasharray:none;stroke-opacity:1"
         id="rect6081"
         width="2645.6692"
         height="2343.3069"
         x="-3.5527137e-15"
         y="982.67773" />
      <rect
         transform="translate(0,-944.8819)"
         y="1776.3781"
         x="2645.6692"
         height="2116.5354"
         width="6765.354"
         id="rect6083"
         style="display:inline;opacity:1;fill:none;fill-opacity:1;stroke:#0000ff;stroke-width:3.77952719;stroke-miterlimit:4;stroke-dasharray:none;stroke-opacity:1" />
      <rect
         style="display:inline;opacity:1;fill:none;fill-opacity:1;stroke:#0000ff;stroke-width:3.77952719;stroke-miterlimit:4;stroke-dasharray:none;stroke-opacity:1"
         id="rect6085"
         width="6765.354"
         height="491.33859"
         x="2645.6692"
         y="340.15762" />
    </g>
    <g
       inkscape:groupmode="layer"
       id="layer6"
       inkscape:label="Parts"
       style="display:inline">
      <path
         id="path6111"
         d="m 2929.6829,1285.0395 c -8.3754,5e-4 -15.1172,15.1192 -15.1172,15.1192 v 73.8716 10.2715 17.9062 c 0,8.3753 -6.7418,15.1171 -15.1172,15.1171 -79.5547,0 -159.1095,0 -238.6642,0 -1.047,0 -2.0668,0.104 -3.0528,0.3047 -6.9006,1.4059 -12.0625,7.4847 -12.0625,14.8124 l 5e-4,196.5349 c 0,8.3754 6.7417,15.1171 15.1172,15.1171 h 238.6618 c 8.3754,0 15.1172,6.7418 15.1172,15.1172 v 102.0444 c 0,1.5704 0.2373,3.082 0.6777,4.5039 0.5873,1.8959 1.5352,3.6288 2.7657,5.121 0.3079,0.3734 0.6326,0.7323 0.9746,1.0742 2.0494,2.0494 4.6867,3.5092 7.6445,4.1114 0.9853,0.2005 2.0064,0.3066 3.0527,0.3066 h 6197.3285 c 4.7103,-6e-4 8.9054,-2.1356 11.6738,-5.4922 2.1529,-2.6109 3.4428,-5.9614 3.4433,-9.6249 v -102.0444 c 0,-8.3754 6.7418,-15.1172 15.1172,-15.1172 h 238.6623 c 8.3756,0 15.1172,-6.7417 15.1172,-15.1171 V 1432.439 c 0,-7.3277 -5.1619,-13.4065 -12.0625,-14.8124 -0.986,-0.2007 -2.0057,-0.3047 -3.0527,-0.3047 h -238.6584 c -8.3754,0 -15.1191,-6.7418 -15.1191,-15.1171 v -102.0472 c 0,0 -6.7418,-15.1188 -15.1172,-15.1192 z"
         style="opacity:1;fill:none;fill-opacity:1;stroke:#ff0000;stroke-width:3.77952719;stroke-miterlimit:4;stroke-dasharray:none;stroke-opacity:1"
         inkscape:connector-curvature="0"
         sodipodi:nodetypes="ccscscccssccssccccscccsccssccccccc" />
    </g>
  </g>
</svg>
