<?xml version="1.0" encoding="UTF-8" standalone="no"?>
<svg
   xmlns:dc="http://purl.org/dc/elements/1.1/"
   xmlns:cc="http://creativecommons.org/ns#"
   xmlns:rdf="http://www.w3.org/1999/02/22-rdf-syntax-ns#"
   xmlns:svg="http://www.w3.org/2000/svg"
   xmlns="http://www.w3.org/2000/svg"
   xmlns:sodipodi="http://sodipodi.sourceforge.net/DTD/sodipodi-0.dtd"
   xmlns:inkscape="http://www.inkscape.org/namespaces/inkscape"
   width="2500mm"
   height="1250mm"
   viewBox="0 0 9448.8194 4724.4094"
   version="1.1"
   id="svg950"
   sodipodi:docname="brace.svg"
   inkscape:version="0.92.3 (2405546, 2018-03-11)">
  <metadata
     id="metadata956">
    <rdf:RDF>
      <cc:Work
         rdf:about="">
        <dc:format>image/svg+xml</dc:format>
        <dc:type
           rdf:resource="http://purl.org/dc/dcmitype/StillImage" />
        <dc:title>Produce by Acme CAD Converter</dc:title>
      </cc:Work>
    </rdf:RDF>
  </metadata>
  <defs
     id="defs954" />
  <sodipodi:namedview
     pagecolor="#ffffff"
     bordercolor="#666666"
     borderopacity="1"
     objecttolerance="10"
     gridtolerance="10"
     guidetolerance="10"
     inkscape:pageopacity="0"
     inkscape:pageshadow="2"
     inkscape:window-width="1598"
     inkscape:window-height="865"
     id="namedview952"
     showgrid="false"
     inkscape:zoom="0.4572"
     inkscape:cx="3107.2047"
     inkscape:cy="3989.0664"
     inkscape:window-x="0"
     inkscape:window-y="16"
     inkscape:window-maximized="0"
     inkscape:current-layer="layer1"
     inkscape:document-units="mm"
     units="mm"
     inkscape:snap-global="true"
     inkscape:snap-bbox="true"
     inkscape:snap-bbox-edge-midpoints="true"
     inkscape:measure-start="2562.34,4091.75"
     inkscape:measure-end="2560.61,4140.31"
     showguides="true"
     inkscape:guide-bbox="true"
     inkscape:snap-grids="true"
     inkscape:bbox-paths="true"
     inkscape:bbox-nodes="true"
     inkscape:object-paths="true"
     inkscape:snap-intersection-paths="true"
     inkscape:snap-bbox-midpoints="true">
    <inkscape:grid
       type="xygrid"
       id="grid2311"
       units="mm"
       spacingx="37.795275"
       spacingy="37.795275"
       empspacing="10"
       color="#3f3fff"
       opacity="0.1254902"
       empcolor="#3f3fff"
       empopacity="0.50196078" />
  </sodipodi:namedview>
  <title
     id="title2">Produce by Acme CAD Converter</title>
  <desc
     id="desc4">Produce by Acme CAD Converter</desc>
  <g
     inkscape:groupmode="layer"
     id="layer5"
     inkscape:label="Construction"
     style="display:none">
    <rect
       style="display:inline;opacity:1;fill:none;fill-opacity:1;stroke:#0400ff;stroke-width:3.77952719;stroke-miterlimit:4;stroke-dasharray:none;stroke-opacity:1"
       id="rect6076"
       width="6765.354"
       height="1776.3779"
       x="2645.6692"
       y="2948.0317" />
    <rect
       transform="translate(0,-944.8819)"
       y="3325.9846"
       x="-3.5527137e-15"
       height="2343.3069"
       width="2645.6692"
       id="rect6079"
       style="display:inline;opacity:1;fill:none;fill-opacity:1;stroke:#0000ff;stroke-width:3.77952743;stroke-miterlimit:4;stroke-dasharray:none;stroke-opacity:1" />
    <rect
       transform="translate(0,-944.8819)"
       style="display:inline;opacity:1;fill:none;fill-opacity:1;stroke:#0000ff;stroke-width:3.77952743;stroke-miterlimit:4;stroke-dasharray:none;stroke-opacity:1"
       id="rect6081"
       width="2645.6692"
       height="2343.3069"
       x="-3.5527137e-15"
       y="982.67773" />
    <rect
       transform="translate(0,-944.8819)"
       y="1776.3781"
       x="2645.6692"
       height="2116.5354"
       width="6765.354"
       id="rect6083"
       style="display:inline;opacity:1;fill:none;fill-opacity:1;stroke:#0000ff;stroke-width:3.77952719;stroke-miterlimit:4;stroke-dasharray:none;stroke-opacity:1" />
    <rect
       style="display:inline;opacity:1;fill:none;fill-opacity:1;stroke:#0000ff;stroke-width:3.77952719;stroke-miterlimit:4;stroke-dasharray:none;stroke-opacity:1"
       id="rect6085"
       width="6765.354"
       height="491.33859"
       x="2645.6692"
       y="340.15762" />
  </g>
  <g
     inkscape:groupmode="layer"
     id="layer6"
     inkscape:label="Parts"
     style="display:inline"
     transform="translate(0,-944.88188)">
    <path
       style="opacity:1;fill:none;fill-opacity:1;stroke:#ff0000;stroke-width:3.77952719;stroke-miterlimit:4;stroke-dasharray:none;stroke-opacity:1"
       d="m 2917.7781,1285.0359 c -1.0463,0 -2.0674,0.1062 -3.0527,0.3067 -2.9578,0.6022 -5.5951,2.0619 -7.6445,4.1113 -0.342,0.3419 -0.6667,0.7008 -0.9746,1.0742 -1.2305,1.4922 -2.1784,3.2252 -2.7657,5.1212 -0.4404,1.4219 -0.6777,2.9335 -0.6777,4.5039 v 0 73.8714 10.2715 17.8985 0.01 c -3e-4,0.5208 -0.027,1.0342 -0.078,1.5411 -0.7714,7.6418 -7.1871,13.5684 -15.0391,13.5684 h -226.7586 c -1.4161,0 -2.7801,0.2076 -4.0781,0.5684 -0.088,0.024 -0.1785,0.042 -0.2656,0.068 -0.2994,0.089 -0.5898,0.196 -0.8809,0.3027 -0.1374,0.05 -0.2766,0.096 -0.4121,0.1504 -0.2813,0.1126 -0.5555,0.2366 -0.8281,0.3652 -0.1369,0.065 -0.2737,0.1288 -0.4082,0.1973 -0.2576,0.1312 -0.5091,0.2707 -0.7579,0.416 -0.1468,0.086 -0.2919,0.1732 -0.4355,0.2637 -0.2337,0.1473 -0.4628,0.2994 -0.6875,0.459 -0.1436,0.1019 -0.2821,0.2096 -0.4219,0.3164 -0.2169,0.1657 -0.4332,0.3308 -0.6406,0.5078 -0.1368,0.1167 -0.2659,0.2418 -0.3984,0.3633 -0.1964,0.1801 -0.3955,0.3567 -0.5821,0.5468 -0.127,0.1294 -0.2429,0.2685 -0.3652,0.4024 -0.3488,0.3821 -0.6779,0.7805 -0.9863,1.1973 -0.1035,0.1397 -0.2138,0.2745 -0.3125,0.4179 -0.1382,0.2009 -0.2621,0.4113 -0.3907,0.6192 -0.1123,0.1815 -0.2272,0.3603 -0.332,0.5468 -0.1133,0.202 -0.2161,0.4096 -0.3203,0.6172 -0.1047,0.2084 -0.2075,0.4171 -0.3027,0.6309 -0.091,0.2051 -0.1756,0.4132 -0.2578,0.623 -0.088,0.2252 -0.1703,0.4533 -0.2481,0.6836 -0.07,0.2062 -0.1365,0.4129 -0.1973,0.6231 -0.075,0.2586 -0.1397,0.5209 -0.2011,0.7851 -0.043,0.1878 -0.09,0.374 -0.127,0.5645 -0.061,0.3195 -0.1054,0.6443 -0.1465,0.9707 -0.019,0.1482 -0.044,0.2938 -0.059,0.4433 -0.045,0.4674 -0.07,0.941 -0.072,1.4201 -1e-4,0.016 0,0.031 0,0.047 v 0.01 196.5281 0.01 0.047 c 0,0.479 0.027,0.9507 0.072,1.418 0.014,0.1507 0.04,0.2978 0.059,0.4472 0.041,0.3238 0.086,0.646 0.1465,0.9629 0.037,0.1931 0.083,0.3819 0.127,0.5723 0.062,0.2655 0.1276,0.5292 0.2031,0.7891 0.06,0.2062 0.1252,0.4088 0.1934,0.6113 0.078,0.2319 0.161,0.4608 0.25,0.6875 0.082,0.2099 0.1665,0.4179 0.2578,0.623 0.095,0.2138 0.198,0.4226 0.3027,0.631 0.1042,0.2076 0.207,0.4153 0.3203,0.6172 0.1084,0.193 0.2272,0.3788 0.3438,0.5664 0.1226,0.1976 0.2397,0.3985 0.3711,0.5898 0.1191,0.1735 0.2508,0.3378 0.3769,0.5059 0.2919,0.3892 0.6023,0.7625 0.9297,1.1211 0.1223,0.1339 0.2382,0.2729 0.3652,0.4023 0.1866,0.1902 0.3857,0.3668 0.5821,0.5469 0.1318,0.1209 0.2603,0.2452 0.3965,0.3613 0.2124,0.1814 0.4338,0.35 0.6562,0.5196 0.134,0.102 0.2668,0.205 0.4043,0.3027 0.2178,0.1548 0.4397,0.302 0.666,0.4453 0.1629,0.1031 0.3271,0.2038 0.4942,0.3008 0.2289,0.1329 0.4608,0.2598 0.6972,0.3808 0.1613,0.083 0.3256,0.1595 0.4903,0.2364 0.2488,0.1162 0.4978,0.2311 0.7539,0.334 0.1571,0.063 0.3188,0.1158 0.4785,0.1738 0.276,0.1001 0.5506,0.2028 0.834,0.2871 0.087,0.026 0.1778,0.044 0.2656,0.068 1.298,0.3608 2.662,0.5684 4.0781,0.5684 h 226.7586 c 7.852,0 14.2677,5.9246 15.0391,13.5664 0.051,0.5069 -0.4428,1.5426 0.078,1.543 v 0.01 17.8985 10.2716 73.8713 0 c 0,1.5704 0.2373,3.082 0.6777,4.5039 0.5873,1.8959 1.5352,3.6289 2.7657,5.1211 0.3079,0.3734 0.6326,0.7324 0.9746,1.0743 2.0494,2.0495 4.6867,3.5092 7.6445,4.1114 0.9853,0.2005 2.0064,0.3066 3.0527,0.3066 7e-4,0 0,0 0,0 h 6221.1447 c 0.2683,0 0.5281,-0.031 0.7929,-0.045 4.3839,-0.227 8.2702,-2.2818 10.8809,-5.4473 2.1514,-2.6091 3.441,-5.9568 3.4434,-9.6172 v -0.01 -102.0481 c 0,-3.5913 1.2455,-6.8771 3.3222,-9.4649 0.041,-0.051 0.076,-0.1061 0.1172,-0.1563 v -0.01 c 0.3062,-0.3712 0.6309,-0.7264 0.9707,-1.0664 0.3416,-0.3416 0.6993,-0.667 1.0723,-0.9746 l 0.01,-0.01 c 0.2823,-0.2327 0.58,-0.4443 0.879,-0.6563 0.095,-0.068 0.1841,-0.1435 0.2812,-0.209 0.4013,-0.2707 0.8165,-0.522 1.2441,-0.7539 0.4285,-0.2321 0.8679,-0.444 1.3204,-0.6347 1.8098,-0.7629 3.8026,-1.1836 5.8964,-1.1836 h 226.7578 c 1.2415,0 2.4408,-0.1657 3.5938,-0.4453 0.2663,-0.065 0.5344,-0.1247 0.7949,-0.2032 0.2015,-0.061 0.396,-0.1344 0.5938,-0.2031 0.2462,-0.085 0.4923,-0.1699 0.7324,-0.2676 0.1908,-0.078 0.3757,-0.1649 0.5625,-0.25 0.2319,-0.1055 0.4621,-0.2133 0.6875,-0.33 0.1925,-0.1 0.3809,-0.2049 0.5684,-0.3125 0.2096,-0.1204 0.416,-0.2451 0.6191,-0.375 0.1842,-0.1179 0.3663,-0.2378 0.5449,-0.3633 0.1899,-0.1335 0.3734,-0.2742 0.5567,-0.416 0.1787,-0.1384 0.359,-0.2739 0.5312,-0.42 0.173,-0.1468 0.3358,-0.3046 0.502,-0.4589 0.1705,-0.1585 0.3447,-0.3124 0.5078,-0.4786 0.1449,-0.1476 0.2791,-0.3054 0.4179,-0.4589 0.2757,-0.305 0.5389,-0.6204 0.7891,-0.9473 0.1591,-0.2078 0.3204,-0.4127 0.4688,-0.6289 0.1256,-0.1832 0.2377,-0.3755 0.3554,-0.5645 0.1216,-0.1951 0.2446,-0.3888 0.3574,-0.5898 0.1128,-0.201 0.2167,-0.4068 0.3204,-0.6133 0.1048,-0.2089 0.2073,-0.4186 0.3027,-0.6329 0.088,-0.1982 0.1702,-0.3989 0.25,-0.6016 0.095,-0.2419 0.1845,-0.4864 0.2676,-0.7343 0.063,-0.1878 0.124,-0.3754 0.1797,-0.5665 0.08,-0.275 0.1481,-0.5545 0.2128,-0.8359 0.041,-0.1769 0.085,-0.3519 0.1192,-0.5312 0.06,-0.3118 0.1019,-0.6289 0.1426,-0.9473 0.021,-0.1643 0.051,-0.3262 0.066,-0.4922 0.044,-0.4621 0.069,-0.9307 0.07,-1.4043 v -0.051 -196.534 -0.033 c 0,-0.4789 -0.026,-0.9507 -0.07,-1.4181 -0.016,-0.1706 -0.045,-0.3369 -0.066,-0.5058 -0.04,-0.3138 -0.084,-0.6263 -0.1426,-0.9336 -0.035,-0.1811 -0.078,-0.3584 -0.1192,-0.5371 -0.064,-0.2781 -0.1318,-0.5543 -0.2109,-0.8262 -0.057,-0.1977 -0.1223,-0.3917 -0.1875,-0.5859 -0.08,-0.2385 -0.1644,-0.4742 -0.2558,-0.7071 -0.083,-0.212 -0.1694,-0.4217 -0.2618,-0.6289 -0.09,-0.2016 -0.1867,-0.3989 -0.2851,-0.5957 -0.1094,-0.219 -0.2183,-0.4376 -0.3379,-0.6504 -0.1011,-0.1797 -0.2122,-0.3523 -0.3203,-0.5273 -0.1294,-0.2096 -0.2534,-0.4224 -0.3926,-0.625 -0.1555,-0.2261 -0.325,-0.4413 -0.4922,-0.6582 -0.1944,-0.2522 -0.3958,-0.4972 -0.6055,-0.7363 -0.1909,-0.2178 -0.3809,-0.4363 -0.5839,-0.6426 -0.1513,-0.1538 -0.313,-0.2962 -0.4707,-0.4434 -0.1741,-0.1624 -0.3458,-0.3264 -0.5274,-0.4805 -0.176,-0.1493 -0.3602,-0.2884 -0.543,-0.4296 -0.1745,-0.1348 -0.3488,-0.2693 -0.5293,-0.3965 -0.1865,-0.1315 -0.3776,-0.2558 -0.5703,-0.3789 -0.1971,-0.126 -0.3963,-0.2484 -0.5996,-0.3653 -0.1975,-0.1136 -0.3966,-0.2233 -0.5996,-0.3281 -0.2008,-0.1036 -0.4053,-0.2001 -0.6113,-0.2949 -0.2116,-0.097 -0.4219,-0.1955 -0.6387,-0.2832 -0.2222,-0.09 -0.4504,-0.1665 -0.6777,-0.2461 -0.2088,-0.073 -0.4141,-0.1508 -0.627,-0.2149 -0.325,-0.098 -0.6582,-0.1776 -0.9922,-0.2539 -1.0925,-0.2493 -2.2262,-0.3945 -3.3965,-0.3945 h -226.7578 c -3.1382,0 -6.0481,-0.9459 -8.4589,-2.5703 -8e-4,-5e-4 0,-10e-4 0,0 -0.4013,-0.2705 -0.7877,-0.5604 -1.1602,-0.8672 0,-10e-4 0,0 -0.01,0 -0.2969,-0.2448 -0.5764,-0.5089 -0.8535,-0.7754 -0.07,-0.068 -0.1478,-0.1282 -0.2168,-0.1973 -0.341,-0.3408 -0.6655,-0.6981 -0.9727,-1.0703 0,-10e-4 0,0 0,0 -0.3058,-0.3709 -0.5935,-0.7586 -0.8633,-1.1582 -0.5423,-0.8039 -1.011,-1.6634 -1.3925,-2.5684 -0.7631,-1.8098 -1.1836,-3.8027 -1.1836,-5.8965 v -102.0467 -0.01 c 0,-3.6605 -1.2921,-7.0083 -3.4434,-9.6173 -2.6092,-3.1636 -6.4924,-5.2182 -10.8731,-5.4473 -0.2641,-0.03 -0.5292,-0.045 -0.7968,-0.045 v 0 z"
       id="path6111"
       inkscape:connector-curvature="0"
       sodipodi:nodetypes="scccccccccccssccccccccccccccccccccccccccccscccscccccccccccccccccccccccccccsscscccccccccscsccccsccccccccccsscccccccccccccccccsccccccccccccscccccccccccccccccccccccccccssccccccccccscsccccs" />
  </g>
  <g
     inkscape:groupmode="layer"
     id="layer1"
     inkscape:label="Template"
     style="display:inline"
     transform="translate(0,-944.88188)">
    <path
       style="opacity:1;fill:none;fill-opacity:1;stroke:#21ff00;stroke-width:3.77952743;stroke-miterlimit:4;stroke-dasharray:none;stroke-opacity:1"
       d="m 3052.625,302.35938 c -35.3643,35.07532 -83.1463,54.77057 -132.9551,54.80273 v 132.27734 h -256.9883 c -0.047,36.77685 -21.4284,70.18517 -54.8046,85.63086 v 21.50391 c 33.3775,15.44629 54.7593,48.8565 54.8046,85.63476 h 256.9883 v 132.2754 c 49.7777,0.0558 97.5231,19.74928 132.8653,54.80273 l 528.5521,0 V 302.35938 Z"
       transform="translate(0,944.88188)"
       id="rect850"
       inkscape:connector-curvature="0"
       sodipodi:nodetypes="ccccccccccccc" />
    <rect
       style="opacity:1;fill:none;fill-opacity:1;stroke:#00ff00;stroke-width:3.77952766;stroke-miterlimit:4;stroke-dasharray:none;stroke-opacity:1"
       id="rect855"
       width="37.7948"
       height="22.677164"
       x="2715.3657"
       y="1378.438" />
    <rect
       style="opacity:1;fill:none;fill-opacity:1;stroke:#00ff00;stroke-width:3.77952743;stroke-miterlimit:4;stroke-dasharray:none;stroke-opacity:1"
       id="rect857"
       width="302.36218"
       height="37.795277"
       x="3114.6106"
       y="1843.2196" />
    <rect
       y="1171.7411"
       x="3081.8022"
       height="37.795277"
       width="302.36218"
       id="rect859"
       style="opacity:1;fill:none;fill-opacity:1;stroke:#00ff00;stroke-width:3.77952743;stroke-miterlimit:4;stroke-dasharray:none;stroke-opacity:1" />
  </g>
</svg>
