<?xml version="1.0" encoding="UTF-8" standalone="no"?>
<svg
   xmlns:dc="http://purl.org/dc/elements/1.1/"
   xmlns:cc="http://creativecommons.org/ns#"
   xmlns:rdf="http://www.w3.org/1999/02/22-rdf-syntax-ns#"
   xmlns:svg="http://www.w3.org/2000/svg"
   xmlns="http://www.w3.org/2000/svg"
   xmlns:sodipodi="http://sodipodi.sourceforge.net/DTD/sodipodi-0.dtd"
   xmlns:inkscape="http://www.inkscape.org/namespaces/inkscape"
   width="2500mm"
   height="1250mm"
   viewBox="0 0 9448.8194 4724.4094"
   version="1.1"
   id="svg950"
   sodipodi:docname="seat.svg"
   inkscape:version="0.92.3 (2405546, 2018-03-11)">
  <metadata
     id="metadata956">
    <rdf:RDF>
      <cc:Work
         rdf:about="">
        <dc:format>image/svg+xml</dc:format>
        <dc:type
           rdf:resource="http://purl.org/dc/dcmitype/StillImage" />
        <dc:title>Produce by Acme CAD Converter</dc:title>
      </cc:Work>
    </rdf:RDF>
  </metadata>
  <defs
     id="defs954" />
  <sodipodi:namedview
     pagecolor="#ffffff"
     bordercolor="#666666"
     borderopacity="1"
     objecttolerance="10"
     gridtolerance="10"
     guidetolerance="10"
     inkscape:pageopacity="0"
     inkscape:pageshadow="2"
     inkscape:window-width="1598"
     inkscape:window-height="865"
     id="namedview952"
     showgrid="false"
     inkscape:zoom="0.9144"
     inkscape:cx="6242.9107"
     inkscape:cy="3564.832"
     inkscape:window-x="0"
     inkscape:window-y="16"
     inkscape:window-maximized="0"
     inkscape:current-layer="layer1"
     inkscape:document-units="mm"
     units="mm"
     inkscape:snap-global="true"
     inkscape:snap-bbox="true"
     inkscape:snap-bbox-edge-midpoints="true"
     inkscape:measure-start="2645.67,3243"
     inkscape:measure-end="2902.66,3243"
     showguides="true"
     inkscape:guide-bbox="true"
     inkscape:snap-grids="true"
     inkscape:bbox-paths="true"
     inkscape:bbox-nodes="true"
     inkscape:object-paths="true"
     inkscape:snap-intersection-paths="true"
     inkscape:snap-bbox-midpoints="true">
    <inkscape:grid
       type="xygrid"
       id="grid2311"
       units="mm"
       spacingx="37.795275"
       spacingy="37.795275"
       empspacing="10"
       color="#3f3fff"
       opacity="0.1254902"
       empcolor="#3f3fff"
       empopacity="0.50196078" />
  </sodipodi:namedview>
  <title
     id="title2">Produce by Acme CAD Converter</title>
  <desc
     id="desc4">Produce by Acme CAD Converter</desc>
  <g
     inkscape:groupmode="layer"
     id="layer5"
     inkscape:label="Construction"
     style="display:none">
    <rect
       style="display:inline;opacity:1;fill:none;fill-opacity:1;stroke:#0400ff;stroke-width:3.77952719;stroke-miterlimit:4;stroke-dasharray:none;stroke-opacity:1"
       id="rect6076"
       width="6765.354"
       height="1776.3779"
       x="2645.6692"
       y="2948.0317" />
    <rect
       transform="translate(0,-944.8819)"
       y="3325.9846"
       x="-3.5527137e-15"
       height="2343.3069"
       width="2645.6692"
       id="rect6079"
       style="display:inline;opacity:1;fill:none;fill-opacity:1;stroke:#0000ff;stroke-width:3.77952743;stroke-miterlimit:4;stroke-dasharray:none;stroke-opacity:1" />
    <rect
       transform="translate(0,-944.8819)"
       style="display:inline;opacity:1;fill:none;fill-opacity:1;stroke:#0000ff;stroke-width:3.77952743;stroke-miterlimit:4;stroke-dasharray:none;stroke-opacity:1"
       id="rect6081"
       width="2645.6692"
       height="2343.3069"
       x="-3.5527137e-15"
       y="982.67773" />
    <rect
       transform="translate(0,-944.8819)"
       y="1776.3781"
       x="2645.6692"
       height="2116.5354"
       width="6765.354"
       id="rect6083"
       style="display:inline;opacity:1;fill:none;fill-opacity:1;stroke:#0000ff;stroke-width:3.77952719;stroke-miterlimit:4;stroke-dasharray:none;stroke-opacity:1" />
    <rect
       style="display:inline;opacity:1;fill:none;fill-opacity:1;stroke:#0000ff;stroke-width:3.77952719;stroke-miterlimit:4;stroke-dasharray:none;stroke-opacity:1"
       id="rect6085"
       width="6765.354"
       height="491.33859"
       x="2645.6692"
       y="340.15762" />
  </g>
  <g
     inkscape:groupmode="layer"
     id="layer6"
     inkscape:label="Parts"
     style="display:inline"
     transform="translate(0,-944.88188)">
    <path
       style="opacity:1;fill:none;fill-opacity:1;stroke:#ff0000;stroke-width:3.77952719;stroke-miterlimit:4;stroke-dasharray:none;stroke-opacity:1"
       d="m 2917.78,831.49609 c -8.3754,0 -15.1191,6.74371 -15.1191,15.11914 v 309.92187 c 0,8.3754 -6.7418,15.1172 -15.1172,15.1172 h -226.7585 c -1.047,0 -2.0668,0.1037 -3.0528,0.3047 -6.9006,1.405 -12.0625,7.4825 -12.0625,14.8105 v 612.2871 c 0,8.376 6.7417,15.1172 15.1172,15.1172 h 158.7254 c 8.3755,0 15.1172,-6.7412 15.1172,-15.1172 v -102.0468 c 0,-8.375 6.7436,-15.1172 15.1191,-15.1172 h 37.7949 c 8.3754,0 15.1172,6.7422 15.1172,15.1172 v 479.998 c 0,8.3754 -6.7418,15.1172 -15.1172,15.1172 h -226.7585 c -1.047,0 -2.0668,0.1037 -3.0528,0.3047 -6.9006,1.405 -12.0625,7.4845 -12.0625,14.8125 v 612.2871 c 0,8.376 6.7417,15.1152 15.1172,15.1152 h 158.7254 c 8.3755,0 15.1172,-6.7392 15.1172,-15.1152 v -102.0469 c 0,-8.375 6.7436,-15.1172 15.1191,-15.1172 h 37.7949 c 8.3754,0 15.1172,6.7422 15.1172,15.1172 v 215.4317 c 0,8.3754 6.7437,15.1175 15.1191,15.1171 h 6221.1336 c 8.3754,0 15.1172,-6.7417 15.1172,-15.1171 v -215.4317 c 0,-8.375 6.7417,-15.1172 15.1171,-15.1172 h 37.795 c 8.3755,0 15.1191,6.7422 15.1191,15.1172 v 102.0469 c 0,8.376 6.7417,15.1172 15.1172,15.1172 h 158.727 c 8.376,0 15.1172,-6.7412 15.1172,-15.1172 v -612.2871 c 0,-7.328 -5.1619,-13.4056 -12.0625,-14.8106 -0.986,-0.201 -2.0057,-0.3066 -3.0527,-0.3066 h -226.7583 c -8.3754,0 -15.1191,-6.7418 -15.1191,-15.1172 v -479.998 c 0,-8.375 6.7417,-15.1172 15.1171,-15.1172 h 37.795 c 8.3755,0 15.1191,6.7422 15.1191,15.1172 v 102.0468 c 0,8.376 6.7417,15.1172 15.1172,15.1172 h 158.727 c 8.376,0 15.1172,-6.7412 15.1172,-15.1172 v -612.2871 c 0,-7.328 -5.1619,-13.4055 -12.0625,-14.8105 -0.986,-0.201 -2.0057,-0.3047 -3.0527,-0.3047 h -226.7583 c -8.3754,0 -15.1191,-6.7418 -15.1191,-15.1172 V 846.61523 c 0,-8.37543 -6.7418,-15.11914 -15.1172,-15.11914 z"
       id="rect6042"
       inkscape:connector-curvature="0"
       sodipodi:nodetypes="scccccsssssssscccccsssssssscccsccsssssssscccccsssssssscccssss"
       transform="translate(0,944.88188)" />
    <rect
       ry="60.472439"
       rx="60.472439"
       y="1889.7639"
       x="3091.6384"
       height="120.94488"
       width="472.44092"
       id="rect6348"
       style="opacity:1;fill:none;fill-opacity:1;stroke:#ff0000;stroke-width:3.77952766;stroke-miterlimit:4;stroke-dasharray:none;stroke-opacity:1" />
    <rect
       style="opacity:1;fill:none;fill-opacity:1;stroke:#ff0000;stroke-width:3.77952766;stroke-miterlimit:4;stroke-dasharray:none;stroke-opacity:1"
       id="rect6362"
       width="472.44092"
       height="120.94488"
       x="8492.6172"
       y="1889.7639"
       rx="60.472439"
       ry="60.472439" />
    <rect
       ry="60.472439"
       rx="60.472439"
       y="1889.7639"
       x="5792.126"
       height="120.94488"
       width="472.44092"
       id="rect6370"
       style="opacity:1;fill:none;fill-opacity:1;stroke:#ff0000;stroke-width:3.77952766;stroke-miterlimit:4;stroke-dasharray:none;stroke-opacity:1" />
  </g>
  <g
     inkscape:groupmode="layer"
     id="layer1"
     inkscape:label="Template"
     transform="translate(0,-944.88188)">
    <g
       transform="translate(-1.9897494e-4,-2116.536)"
       style="display:inline;stroke-width:3.77952743;stroke-miterlimit:4;stroke-dasharray:none"
       id="g851">
      <path
         sodipodi:nodetypes="ccccccccccccccccccccccc"
         inkscape:connector-curvature="0"
         id="rect872"
         transform="translate(0,944.88188)"
         d="m 3052.627,2910.2363 c -35.3648,35.0758 -83.1476,54.7712 -132.9571,54.8028 l -4e-4,340.1584 h -256.9922 c -0.056,49.7776 -19.7493,97.523 -54.8027,132.8652 l 4e-4,342.684 c 35.0748,35.3638 54.77,83.145 54.8027,132.9531 h 154.9453 v -132.2793 h 102.0469 l 0,544.2489 h -257.3711 c -0.061,49.6261 -19.6393,97.2368 -54.5078,132.5489 0.023,19.7962 0.046,323.0538 0.07,342.85 35.1695,35.3751 54.9259,83.2207 54.961,133.1035 h 154.801 v -132.2812 h 102.0469 l 0,245.6691 c 49.7783,0.055 97.5245,19.7489 132.8672,54.8028 h 1000.991 V 2910.2363 Z"
         style="opacity:1;fill:none;fill-opacity:1;stroke:#00ff00;stroke-width:3.77952743;stroke-miterlimit:4;stroke-dasharray:none;stroke-opacity:1" />
      <rect
         rx="77.480309"
         ry="77.480309"
         y="3989.2915"
         x="3074.6306"
         height="154.96062"
         width="506.45667"
         id="rect878"
         style="display:inline;opacity:1;fill:none;fill-opacity:1;stroke:#00ff00;stroke-width:3.77952743;stroke-miterlimit:4;stroke-dasharray:none;stroke-opacity:1" />
    </g>
    <g
       transform="translate(-1531.4085,-1160.4553)"
       style="display:inline;stroke-width:3.77952747;stroke-miterlimit:4;stroke-dasharray:none"
       id="g847">
      <g
         id="g855"
         transform="translate(1531.4086,-956.0807)">
        <path
           style="opacity:1;fill:none;fill-opacity:1;stroke:#00ff00;stroke-width:3.77952743;stroke-miterlimit:4;stroke-dasharray:none;stroke-opacity:1"
           d="m 5272.4408,2910.2363 v 472.4414 h 1511.811 v -472.4414 h -729.7206 c -8.7267,15.1189 -17.4562,30.2361 -26.1855,45.3535 -8.7281,-15.1181 -17.4568,-30.2358 -26.1855,-45.3535 z"
           transform="translate(0,944.88188)"
           id="rect876"
           inkscape:connector-curvature="0"
           sodipodi:nodetypes="cccccccc" />
        <rect
           rx="77.480309"
           ry="77.480309"
           y="3989.2922"
           x="5774.0273"
           height="154.96062"
           width="506.45667"
           id="rect881"
           style="display:inline;opacity:1;fill:none;fill-opacity:1;stroke:#00ff00;stroke-width:3.77952743;stroke-miterlimit:4;stroke-dasharray:none;stroke-opacity:1" />
      </g>
    </g>
    <path
       sodipodi:nodetypes="ccccc"
       style="display:inline;opacity:1;fill:none;fill-opacity:1;stroke:#00ff00;stroke-width:3.77952743;stroke-miterlimit:4;stroke-dasharray:none;stroke-opacity:1"
       d="m 2835.346,2799.1292 c 0,100.7874 0,201.5748 0,302.3622 h 37.7949 v -302.3622 z"
       id="path850"
       inkscape:connector-curvature="0" />
    <path
       inkscape:connector-curvature="0"
       id="path865"
       d="m 2759.7554,2799.1292 c 0,100.7874 0,201.5748 0,302.3622 h 37.7949 v -302.3622 z"
       style="display:inline;opacity:1;fill:none;fill-opacity:1;stroke:#00ff00;stroke-width:3.77952743;stroke-miterlimit:4;stroke-dasharray:none;stroke-opacity:1"
       sodipodi:nodetypes="ccccc" />
    <path
       sodipodi:nodetypes="ccccc"
       style="display:inline;opacity:1;fill:none;fill-opacity:1;stroke:#00ff00;stroke-width:3.77952743;stroke-miterlimit:4;stroke-dasharray:none;stroke-opacity:1"
       d="m 2684.1648,2799.1292 c 0,100.7874 0,201.5748 0,302.3622 h 37.7949 v -302.3622 z"
       id="path867"
       inkscape:connector-curvature="0" />
    <path
       inkscape:connector-curvature="0"
       id="path869"
       d="m 2835.346,1778.6561 c 0,100.7874 0,201.5748 0,302.3622 h 37.7949 v -302.3622 z"
       style="display:inline;opacity:1;fill:none;fill-opacity:1;stroke:#00ff00;stroke-width:3.77952743;stroke-miterlimit:4;stroke-dasharray:none;stroke-opacity:1"
       sodipodi:nodetypes="ccccc" />
    <path
       sodipodi:nodetypes="ccccc"
       style="display:inline;opacity:1;fill:none;fill-opacity:1;stroke:#00ff00;stroke-width:3.77952743;stroke-miterlimit:4;stroke-dasharray:none;stroke-opacity:1"
       d="m 2759.7554,1778.6561 c 0,100.7874 0,201.5748 0,302.3622 h 37.7949 v -302.3622 z"
       id="path871"
       inkscape:connector-curvature="0" />
    <path
       inkscape:connector-curvature="0"
       id="path873"
       d="m 2684.1648,1778.6561 c 0,100.7874 0,201.5748 0,302.3622 h 37.7949 v -302.3622 z"
       style="display:inline;opacity:1;fill:none;fill-opacity:1;stroke:#00ff00;stroke-width:3.77952743;stroke-miterlimit:4;stroke-dasharray:none;stroke-opacity:1"
       sodipodi:nodetypes="ccccc" />
    <path
       sodipodi:nodetypes="ccccc"
       style="display:inline;opacity:1;fill:none;fill-opacity:1;stroke:#00ff00;stroke-width:3.77952743;stroke-miterlimit:4;stroke-dasharray:none;stroke-opacity:1"
       d="m 6179.5275,1957.7957 c -100.7874,0 -201.5748,0 -302.3622,0 v 37.7949 h 302.3622 z"
       id="path875"
       inkscape:connector-curvature="0" />
    <path
       inkscape:connector-curvature="0"
       id="path877"
       d="m 6179.5275,1904.8821 c -100.7874,0 -201.5748,0 -302.3622,0 v 37.7949 h 302.3622 z"
       style="display:inline;opacity:1;fill:none;fill-opacity:1;stroke:#00ff00;stroke-width:3.77952743;stroke-miterlimit:4;stroke-dasharray:none;stroke-opacity:1"
       sodipodi:nodetypes="ccccc" />
  </g>
</svg>
