<?xml version="1.0" encoding="UTF-8" standalone="no"?>
<!-- Created with Inkscape (http://www.inkscape.org/) -->

<svg
   xmlns:dc="http://purl.org/dc/elements/1.1/"
   xmlns:cc="http://creativecommons.org/ns#"
   xmlns:rdf="http://www.w3.org/1999/02/22-rdf-syntax-ns#"
   xmlns:svg="http://www.w3.org/2000/svg"
   xmlns="http://www.w3.org/2000/svg"
   xmlns:xlink="http://www.w3.org/1999/xlink"
   xmlns:sodipodi="http://sodipodi.sourceforge.net/DTD/sodipodi-0.dtd"
   xmlns:inkscape="http://www.inkscape.org/namespaces/inkscape"
   width="744.09448"
   height="1052.3622"
   id="svg2"
   version="1.1"
   inkscape:version="0.48.4 r9939"
   sodipodi:docname="Neues Dokument 1">
  <defs
     id="defs4" />
  <sodipodi:namedview
     id="base"
     pagecolor="#ffffff"
     bordercolor="#666666"
     borderopacity="1.0"
     inkscape:pageopacity="0.0"
     inkscape:pageshadow="2"
     inkscape:zoom="1.5454803"
     inkscape:cx="194.68812"
     inkscape:cy="549.04198"
     inkscape:document-units="mm"
     inkscape:current-layer="layer1"
     showgrid="true"
     inkscape:snap-bbox="true"
     units="mm"
     inkscape:window-width="1594"
     inkscape:window-height="843"
     inkscape:window-x="0"
     inkscape:window-y="0"
     inkscape:window-maximized="0">
    <inkscape:grid
       type="xygrid"
       id="grid2985"
       units="mm"
       empspacing="5"
       visible="true"
       enabled="true"
       snapvisiblegridlinesonly="true"
       dotted="true" />
  </sodipodi:namedview>
  <metadata
     id="metadata7">
    <rdf:RDF>
      <cc:Work
         rdf:about="">
        <dc:format>image/svg+xml</dc:format>
        <dc:type
           rdf:resource="http://purl.org/dc/dcmitype/StillImage" />
        <dc:title></dc:title>
      </cc:Work>
    </rdf:RDF>
  </metadata>
  <g
     inkscape:label="Ebene 1"
     inkscape:groupmode="layer"
     id="layer1"
     transform="translate(0,-2.5390623e-6)">
    <rect
       style="fill:#dcdcdc;fill-opacity:1;fill-rule:evenodd;stroke:#000000;stroke-width:0.1;stroke-linecap:round;stroke-miterlimit:4;stroke-opacity:1;stroke-dasharray:none;stroke-dashoffset:0"
       id="rect2987"
       width="708.66144"
       height="318.89764"
       x="17.716536"
       y="7.0865922" />
    <path
       style="fill:#dcdcdc;fill-opacity:1;fill-rule:evenodd;stroke:#000000;stroke-width:0.1;stroke-linecap:round;stroke-miterlimit:4;stroke-opacity:1;stroke-dashoffset:0"
       d="M 70.875 343.6875 L 124 432.28125 L 35.4375 574.03125 L 35.4375 609.4375 L 88.59375 609.4375 L 88.59375 574.03125 L 301.1875 574.03125 L 301.1875 609.4375 L 354.34375 609.4375 L 354.34375 574.03125 L 265.75 432.28125 L 318.90625 343.6875 L 70.875 343.6875 z M 194.875 488.96875 C 208.5734 488.96875 219.6875 500.08285 219.6875 513.78125 C 219.6875 527.47965 208.5734 538.59375 194.875 538.59375 C 181.1766 538.59375 170.09375 527.47965 170.09375 513.78125 C 170.09375 500.08285 181.1766 488.96875 194.875 488.96875 z "
       transform="translate(0,2.5390623e-6)"
       id="rect2989" />
    <use
       x="0"
       y="0"
       xlink:href="#rect2989"
       id="use2997"
       transform="translate(354.33071,-6.7052179e-7)"
       width="744.09448"
       height="1052.3622" />
    <path
       style="fill:#dcdcdc;fill-opacity:1;stroke:#000000;stroke-opacity:1"
       d="m 269.29134,432.28344 88.5625,141.75 10.65625,0 0,-141.75 -99.21875,0 z"
       id="path3777"
       inkscape:connector-curvature="0" />
    <path
       style="fill:#dcdcdc;fill-opacity:1;stroke:#000000;stroke-opacity:1"
       d="m 375.5844,432.28344 0,141.75 10.625,0 88.59375,-141.75 -99.21875,0 z"
       id="path2999"
       inkscape:connector-curvature="0" />
    <path
       inkscape:connector-curvature="0"
       id="path3769"
       d="m 336.61418,804.33068 -88.58268,141.73229 212.59843,0 -88.58268,-141.73229 z"
       style="fill:#dcdcdc;fill-opacity:1;stroke:#000000;stroke-opacity:1" />
    <path
       inkscape:connector-curvature="0"
       id="path3779"
       d="m 17.716535,432.28344 0,141.75 10.625,0 88.593755,-141.75 -99.218755,0 z"
       style="fill:#dcdcdc;fill-opacity:1;stroke:#000000;stroke-opacity:1" />
    <path
       inkscape:connector-curvature="0"
       id="path3783"
       d="m 627.1592,432.28344 88.5625,141.75 10.65625,0 0,-141.75 -99.21875,0 z"
       style="fill:#dcdcdc;fill-opacity:1;stroke:#000000;stroke-opacity:1" />
    <path
       inkscape:connector-curvature="0"
       id="path3785"
       d="m 95.66314,343.70077 88.5625,141.75 10.65625,0 0,-141.75 -99.21875,0 z"
       style="fill:#dcdcdc;fill-opacity:1;stroke:#000000;stroke-opacity:1" />
  </g>
</svg>
